<svg xmlns="http://www.w3.org/2000/svg" xmlns:xlink="http://www.w3.org/1999/xlink" version="1.1" x="0px" y="0px" viewBox="0 0 100 100" enable-background="new 0 0 100 100" xml:space="preserve"><g><path fill="#000000" d="M83.1,39c-0.2-0.3-0.5-0.5-0.8-0.6L64,34c-0.6-0.1-1.2,0.2-1.4,0.8l-7,17.7l2.3,0.8l6.6-16.8l15.9,4.1   c-1,3.1-3.4,9.5-5.6,15.5c-2,5.2-3.1,7-5.3,7.4c0,0,0,0,0,0c-4.4,0.6-4.3-5-4.3-5l-14.1-5.7c-1,6.4,3.9,7.9,3.9,7.9l10.3,4.7   c0,0,1.6,0.8,3.4,0.7c4.7-0.1,6.4-3.5,8.5-9c3-7.9,6.1-16.8,6.1-16.9C83.3,39.7,83.3,39.3,83.1,39z"/><path fill="#000000" d="M74.7,46.2c0.1,0,0.2,0,0.3,0c0.5,0,1-0.4,1.2-0.9c0.2-0.7-0.2-1.3-0.9-1.5L70,42.1   c-0.7-0.2-1.3,0.2-1.5,0.9c-0.2,0.7,0.2,1.3,0.9,1.5L74.7,46.2z"/><path fill="#000000" d="M66.3,48c-0.2,0.7,0.1,1.4,0.8,1.6l5.3,1.9c0.1,0,0.3,0.1,0.4,0.1c0.5,0,1-0.3,1.2-0.8   c0.2-0.6-0.1-1.4-0.8-1.6l-5.3-1.9C67.3,47,66.6,47.3,66.3,48z"/><path fill="#000000" d="M65.9,52.3c-0.7-0.2-1.4,0.1-1.6,0.8c-0.2,0.6,0.1,1.4,0.8,1.6l5.4,1.9c0.1,0,0.3,0.1,0.4,0.1   c0.5,0,1-0.3,1.2-0.9c0.2-0.7-0.1-1.4-0.8-1.6L65.9,52.3z"/><path fill="#000000" d="M65.7,40.7c0.8,0,1.4,0.6,1.4,1.3c0,0.7-0.6,1.3-1.4,1.3c-0.8,0-1.4-0.6-1.4-1.3   C64.3,41.3,64.9,40.7,65.7,40.7z"/><path fill="#000000" d="M63.7,45.6c0.8,0,1.4,0.6,1.4,1.3c0,0.7-0.6,1.3-1.4,1.3c-0.8,0-1.4-0.6-1.4-1.3   C62.4,46.2,63,45.6,63.7,45.6z"/><path fill="#000000" d="M61.7,50.8c0.8,0,1.4,0.6,1.4,1.3c0,0.7-0.6,1.3-1.4,1.3c-0.8,0-1.4-0.6-1.4-1.3   C60.3,51.4,60.9,50.8,61.7,50.8z"/></g><g><path fill="#000000" d="M68.7,69c-0.1,0-0.2,0-0.3,0c-1.5,0-2.8-0.4-3.6-0.7v15.4H21V14.6h43.8v16.5l4.2,1V11.1C69,7.7,66.3,5,63,5   H22.8c-3.3,0-6.1,2.7-6.1,6.1v77.8c0,3.3,2.7,6.1,6.1,6.1H63c3.3,0,6.1-2.7,6.1-6.1V69C68.9,69,68.8,69,68.7,69z M36.5,9.4h12.8   c0.4,0,0.7,0.3,0.7,0.7c0,0.4-0.3,0.7-0.7,0.7H36.5c-0.4,0-0.7-0.3-0.7-0.7C35.7,9.7,36.1,9.4,36.5,9.4z M42.9,92c-1.7,0-3-1.4-3-3   s1.4-3,3-3s3,1.4,3,3C45.9,90.6,44.6,92,42.9,92z"/></g></svg>